<svg xmlns="http://www.w3.org/2000/svg" xmlns:xlink="http://www.w3.org/1999/xlink" id="Ñëîé_1" data-name="Ñëîé 1" viewBox="0 0 438.49 324.79"><defs><linearGradient id="Áåçûìÿííûé_ãðàäèåíò_33" x1="405.87" x2="438.49" y1="269.37" y2="269.37" gradientUnits="userSpaceOnUse"><stop offset="0" stop-color="#e39a65"/><stop offset="1" stop-color="#e95f8d"/></linearGradient><linearGradient xlink:href="#Áåçûìÿííûé_ãðàäèåíò_33" id="Áåçûìÿííûé_ãðàäèåíò_33-2" x1="361.22" x2="416" y1="224.68" y2="224.68"/><linearGradient xlink:href="#Áåçûìÿííûé_ãðàäèåíò_33" id="Áåçûìÿííûé_ãðàäèåíò_33-3" x1="0" x2="54.78" y1="243.03" y2="243.03"/><linearGradient xlink:href="#Áåçûìÿííûé_ãðàäèåíò_33" id="Áåçûìÿííûé_ãðàäèåíò_33-4" x1="63.77" x2="356.13" y1="239.51" y2="239.51"/><linearGradient id="Áåçûìÿííûé_ãðàäèåíò_441" x1="190.24" x2="369.21" y1="128.27" y2="128.27" gradientUnits="userSpaceOnUse"><stop offset="0" stop-color="#3919bb"/><stop offset="1" stop-color="#6507fa"/></linearGradient><linearGradient xlink:href="#Áåçûìÿííûé_ãðàäèåíò_33" id="Áåçûìÿííûé_ãðàäèåíò_33-5" x1="68.22" x2="145" y1="152.75" y2="152.75"/><linearGradient id="Áåçûìÿííûé_ãðàäèåíò_144" x1="77.96" x2="137.27" y1="69.64" y2="69.64" gradientUnits="userSpaceOnUse"><stop offset="0" stop-color="#e39a65"/><stop offset=".25" stop-color="#a92ffb"/><stop offset=".56" stop-color="#3919bb"/></linearGradient><linearGradient id="Áåçûìÿííûé_ãðàäèåíò_483" x1="83.52" x2="131.7" y1="66.62" y2="66.62" gradientUnits="userSpaceOnUse"><stop offset="0" stop-color="#4f1fec"/><stop offset="1" stop-color="#a92ffb"/></linearGradient><linearGradient xlink:href="#Áåçûìÿííûé_ãðàäèåíò_483" id="Áåçûìÿííûé_ãðàäèåíò_483-2" x1="82.38" x2="130.56" y1="66.62" y2="66.62"/><linearGradient id="Áåçûìÿííûé_ãðàäèåíò_193" x1="83.52" x2="144.27" y1="60.27" y2="60.27" gradientUnits="userSpaceOnUse"><stop offset="0" stop-color="#131060"/><stop offset=".19" stop-color="#141062"/><stop offset=".28" stop-color="#19106a"/><stop offset=".36" stop-color="#221078"/><stop offset=".42" stop-color="#2e0f8b"/><stop offset=".48" stop-color="#3e0fa3"/><stop offset=".54" stop-color="#510ec2"/><stop offset=".58" stop-color="#680de5"/><stop offset=".61" stop-color="#740df8"/><stop offset=".62" stop-color="#7a14f0"/><stop offset=".68" stop-color="#9b3cc3"/><stop offset=".75" stop-color="#b75d9d"/><stop offset=".81" stop-color="#cc7680"/><stop offset=".88" stop-color="#dc886c"/><stop offset=".94" stop-color="#e5935f"/><stop offset="1" stop-color="#e8975b"/></linearGradient><linearGradient xlink:href="#Áåçûìÿííûé_ãðàäèåíò_193" id="Áåçûìÿííûé_ãðàäèåíò_193-2" x1="103.8" x2="112.2" y1="79.88" y2="79.88"/><radialGradient id="Áåçûìÿííûé_ãðàäèåíò_113" cx="225.26" cy="23.06" r="223.3" gradientUnits="userSpaceOnUse"><stop offset="0" stop-color="#e39a65"/><stop offset=".47" stop-color="#a92ffb"/><stop offset=".59" stop-color="#891cfb"/><stop offset=".74" stop-color="#6507fa"/><stop offset=".8" stop-color="#0d0c6f"/></radialGradient><radialGradient id="Áåçûìÿííûé_ãðàäèåíò_109" cx="88.69" cy="202.38" r="244.17" gradientUnits="userSpaceOnUse"><stop offset="0" stop-color="#e39a65"/><stop offset=".47" stop-color="#a92ffb"/><stop offset=".57" stop-color="#891cfb"/><stop offset=".68" stop-color="#6507fa"/><stop offset=".74" stop-color="#0d0c6f"/></radialGradient><radialGradient id="Áåçûìÿííûé_ãðàäèåíò_343" cx="111.15" cy="153.37" r="218.96" gradientUnits="userSpaceOnUse"><stop offset="0" stop-color="#e39a65"/><stop offset=".47" stop-color="#a92ffb"/><stop offset=".59" stop-color="#891cfb"/><stop offset=".73" stop-color="#6507fa"/><stop offset="1" stop-color="#3919bb"/></radialGradient><radialGradient xlink:href="#Áåçûìÿííûé_ãðàäèåíò_343" id="Áåçûìÿííûé_ãðàäèåíò_343-2" cx="165.69" cy="69.64" r="223.34"/><radialGradient xlink:href="#Áåçûìÿííûé_ãðàäèåíò_343" id="Áåçûìÿííûé_ãðàäèåíò_343-3" cx="84.16" cy="21.94" r="347.85"/><radialGradient id="Áåçûìÿííûé_ãðàäèåíò_199" cx="75.03" cy="90.12" r="165.35" gradientUnits="userSpaceOnUse"><stop offset="0" stop-color="#e39a65"/><stop offset=".15" stop-color="#a92ffb"/><stop offset=".41" stop-color="#3919bb"/><stop offset=".93" stop-color="#3919bb"/></radialGradient><radialGradient id="Áåçûìÿííûé_ãðàäèåíò_223" cx="70.55" cy="52.86" r="108.16" gradientUnits="userSpaceOnUse"><stop offset="0" stop-color="#e39a65"/><stop offset=".25" stop-color="#a92ffb"/><stop offset=".74" stop-color="#3919bb"/></radialGradient><style>.cls-4{fill:#020230;opacity:.6}.cls-29,.cls-9{fill:#fff}.cls-10,.cls-14{opacity:.4}.cls-11,.cls-14{fill:#06033e}.cls-29{opacity:.5}.cls-18{fill:#e8975b}.cls-19{fill:#f8359e}</style></defs><path d="M422.18 279a7 7 0 0 1-3.48-.93l-11.7-6.82a2.17 2.17 0 0 1 0-3.76l11.74-6.78a7 7 0 0 1 7 0l11.74 6.78a2.17 2.17 0 0 1 0 3.76L425.66 278a7 7 0 0 1-3.48 1Zm0-17.32a5.13 5.13 0 0 0-2.55.68l-11.74 6.78a.32.32 0 0 0 0 .54l11.74 6.78a5.15 5.15 0 0 0 5.1 0l11.74-6.78a.32.32 0 0 0 0-.54l-11.74-6.78a5.15 5.15 0 0 0-2.55-.72Z" style="fill:url(#Áåçûìÿííûé_ãðàäèåíò_33)"/><path d="M388.61 240.51A11.36 11.36 0 0 1 383 239l-20.2-11.67a3.06 3.06 0 0 1 0-5.31l20.2-11.66a11.31 11.31 0 0 1 11.31 0L414.47 222a3.07 3.07 0 0 1 0 5.31L394.27 239a11.4 11.4 0 0 1-5.66 1.51Zm-4.72-3.13a9.44 9.44 0 0 0 9.45 0l20.2-11.66a1.18 1.18 0 0 0 .6-1 1.19 1.19 0 0 0-.6-1.05L393.34 212a9.49 9.49 0 0 0-9.45 0l-20.2 11.66a1.19 1.19 0 0 0-.61 1.05 1.17 1.17 0 0 0 .61 1Z" style="fill:url(#Áåçûìÿííûé_ãðàäèåíò_33-2)"/><path d="M27.39 258.86a11.3 11.3 0 0 1-5.66-1.51L1.54 245.69a3.07 3.07 0 0 1 0-5.32l20.19-11.66a11.31 11.31 0 0 1 11.31 0l20.2 11.66a3.07 3.07 0 0 1 0 5.32L33 257.35a11.26 11.26 0 0 1-5.61 1.51Zm0-29.8a9.47 9.47 0 0 0-4.73 1.26L2.46 242a1.21 1.21 0 0 0 0 2.1l20.19 11.66a9.51 9.51 0 0 0 9.46 0L52.3 244.1a1.21 1.21 0 0 0 0-2.1l-20.2-11.66a9.43 9.43 0 0 0-4.71-1.28Z" style="fill:url(#Áåçûìÿííûé_ãðàäèåíò_33-3)"/><path d="M231.94 309.73 87.5 226.35c-2.1-1.22-1.84-3.34.59-4.75l92.7-53.51c2.43-1.41 6.11-1.56 8.21-.34l144.43 83.38c2.11 1.22 1.85 3.34-.58 4.74l-92.7 53.52c-2.43 1.41-6.15 1.61-8.21.34Z" class="cls-4"/><path d="M235.24 324.79a9.18 9.18 0 0 1-4.54-1.07L65.86 228.55a3.68 3.68 0 0 1-2.09-3.15c0-1.45 1-2.86 2.76-3.87L178.9 155.7c3.08-1.78 7.61-1.95 10.31-.39L354 250.48a3.66 3.66 0 0 1 2.09 3.15c0 1.45-1 2.86-2.76 3.87L241 323.33a11.75 11.75 0 0 1-5.76 1.46Zm-50.56-168.68a10 10 0 0 0-4.85 1.2L67.47 223.14c-1.15.66-1.83 1.51-1.83 2.26a2 2 0 0 0 1.15 1.54l164.84 95.17c2.11 1.22 6 1 8.44-.39l112.37-65.83c1.15-.66 1.83-1.51 1.83-2.26a2 2 0 0 0-1.15-1.54l-164.84-95.17a7.4 7.4 0 0 0-3.6-.81Z" style="fill:url(#Áåçûìÿííûé_ãðàäèåíò_33-4)"/><path d="m371.8 111.33-143.86-83a3.71 3.71 0 0 0-2.93-.43l-2.66.93.94.22a4.6 4.6 0 0 0-.88 1.64l-32.56 105.59a6.38 6.38 0 0 0 2.64 7.11l143.86 83.06a4.29 4.29 0 0 0 1.06.43l-.36.78 2.55-.89a4 4 0 0 0 2.32-2.69l32.53-105.63a6.36 6.36 0 0 0-2.65-7.12Z" style="fill:url(#Áåçûìÿííûé_ãðàäèåíò_113)"/><path d="m331.2 230.4.05.06-142.09-82c-2.09-1.21-5.75-1.06-8.16.33l-91.81 53-3.06-1.17.86 4.3a2.59 2.59 0 0 0 1.38 1.72l143.41 82.8c2.09 1.21 5.75 1.06 8.16-.34l92-53.14a3.65 3.65 0 0 0 1.95-2.27l.88-4.18Z" style="fill:url(#Áåçûìÿííûé_ãðàäèåíò_109)"/><path d="M231.94 285.62 87.5 202.24c-2.1-1.22-1.84-3.34.59-4.75l92.7-53.49c2.43-1.41 6.11-1.56 8.21-.34L333.43 227c2.11 1.22 1.85 3.34-.58 4.74l-92.7 53.52c-2.43 1.43-6.15 1.58-8.21.36Z" style="fill:url(#Áåçûìÿííûé_ãðàäèåíò_343)"/><path d="m332.84 230.64-92.69 53.52c-2.43 1.4-6.11 1.55-8.21.34L87.5 201.11a2.73 2.73 0 0 1-1.31-1.5 2.26 2.26 0 0 0 1.31 2.63l144.44 83.38c2.1 1.22 5.78 1.07 8.21-.34l92.69-53.52c1.61-.92 2.25-2.16 1.91-3.24a3.83 3.83 0 0 1-1.91 2.12Z" class="cls-9"/><g class="cls-10"><path d="m156.4 188.7-4.88-2.81c-.39-.23-.34-.62.11-.88l5.76-3.33a1.67 1.67 0 0 1 1.52-.06l4.88 2.82c.39.22.34.62-.11.88l-5.76 3.32a1.67 1.67 0 0 1-1.52.06ZM163.93 193.05l-4.88-2.81c-.39-.23-.34-.62.11-.89l5.76-3.32a1.67 1.67 0 0 1 1.52-.06l4.88 2.81c.39.23.34.62-.11.89l-5.76 3.33a1.67 1.67 0 0 1-1.52.05ZM171.46 197.4l-4.88-2.82c-.39-.22-.34-.62.11-.88l5.76-3.32a1.67 1.67 0 0 1 1.52-.06l4.88 2.81c.39.23.34.62-.11.88l-5.74 3.33a1.67 1.67 0 0 1-1.54.06ZM181.87 193.81 177 191c-.4-.22-.35-.62.11-.88l4.83-2.79a1.67 1.67 0 0 1 1.52-.06l4.88 2.81c.39.23.34.63-.11.89l-4.83 2.79a1.72 1.72 0 0 1-1.53.05ZM189.4 198.16l-4.87-2.82c-.4-.22-.35-.62.11-.88l4.83-2.79a1.67 1.67 0 0 1 1.52-.06l4.88 2.81c.39.23.34.62-.11.88l-4.83 2.79a1.73 1.73 0 0 1-1.53.07ZM196.93 202.5l-4.87-2.81c-.4-.23-.35-.62.11-.88L197 196a1.71 1.71 0 0 1 1.52-.07l4.88 2.82c.39.23.34.62-.11.88l-4.83 2.79a1.69 1.69 0 0 1-1.53.08ZM204.46 206.85l-4.87-2.85c-.4-.23-.35-.62.11-.89l4.83-2.78a1.67 1.67 0 0 1 1.52-.07l4.88 2.82c.39.22.34.62-.11.88l-4.82 2.83a1.69 1.69 0 0 1-1.54.06ZM212 211.2l-4.87-2.82c-.4-.22-.35-.62.11-.88l4.83-2.79a1.69 1.69 0 0 1 1.53-.06l4.87 2.81c.39.23.34.63-.11.89l-4.83 2.79a1.69 1.69 0 0 1-1.53.06ZM219.52 215.55l-4.87-2.82c-.39-.22-.35-.62.11-.88l4.83-2.79a1.69 1.69 0 0 1 1.53-.06l4.87 2.81c.39.23.34.62-.11.88l-4.83 2.79a1.73 1.73 0 0 1-1.53.07ZM227.05 219.89l-4.87-2.81c-.39-.23-.35-.62.11-.88l4.83-2.79a1.73 1.73 0 0 1 1.53-.07l4.87 2.82c.39.23.34.62-.11.88l-4.83 2.79a1.69 1.69 0 0 1-1.53.06ZM234.58 224.24l-4.87-2.81c-.39-.23-.35-.62.11-.89l4.83-2.78a1.69 1.69 0 0 1 1.53-.07l4.87 2.82c.39.22.34.62-.11.88l-4.83 2.79a1.69 1.69 0 0 1-1.53.06ZM242.11 228.59l-4.87-2.82c-.39-.22-.34-.62.11-.88l4.83-2.79a1.69 1.69 0 0 1 1.53-.06l4.87 2.81c.39.23.34.63-.11.89l-4.83 2.79a1.69 1.69 0 0 1-1.53.06ZM249.64 232.94l-4.87-2.82c-.39-.22-.34-.62.11-.88l4.83-2.79a1.69 1.69 0 0 1 1.53-.06l4.87 2.81c.39.23.34.62-.11.88l-4.83 2.79a1.69 1.69 0 0 1-1.53.07ZM193 191.75l-4.88-2.81c-.39-.23-.34-.63.11-.89l4.83-2.79a1.69 1.69 0 0 1 1.53-.06l4.88 2.82c.39.22.34.62-.11.88l-4.84 2.79a1.67 1.67 0 0 1-1.52.06ZM185.32 187.34l-4.87-2.82c-.39-.22-.34-.62.11-.88l4.83-2.79a1.69 1.69 0 0 1 1.53-.06l4.87 2.81c.39.23.35.62-.11.89l-4.83 2.78a1.69 1.69 0 0 1-1.53.07ZM177.67 182.92l-10.5-6.06c-.39-.23-.35-.63.11-.89l4.83-2.79a1.69 1.69 0 0 1 1.53-.06l10.5 6.06c.39.23.34.62-.11.89l-4.83 2.79a1.73 1.73 0 0 1-1.53.06ZM183 177.54l-8.52-4.92c-.39-.22-.35-.62.11-.88l4.83-2.79a1.69 1.69 0 0 1 1.53-.06l8.52 4.92c.39.22.34.62-.11.88l-4.83 2.79a1.69 1.69 0 0 1-1.53.06ZM200.5 196.1l-4.88-2.82c-.39-.22-.34-.62.11-.88l4.83-2.79a1.69 1.69 0 0 1 1.53-.06l4.88 2.81c.39.23.34.62-.11.89L202 196a1.67 1.67 0 0 1-1.5.1ZM208 200.45l-4.88-2.82c-.39-.23-.34-.62.11-.88l4.83-2.79a1.69 1.69 0 0 1 1.53-.06l4.88 2.81c.39.23.34.62-.11.88l-4.84 2.79a1.71 1.71 0 0 1-1.52.07ZM215.56 204.79l-4.88-2.79c-.39-.23-.34-.62.11-.88l4.83-2.79a1.73 1.73 0 0 1 1.53-.07l4.88 2.82c.39.22.34.62-.11.88l-4.83 2.79a1.69 1.69 0 0 1-1.53.04ZM223.09 209.14l-4.88-2.81c-.39-.23-.34-.63.11-.89l4.83-2.79a1.69 1.69 0 0 1 1.53-.06l4.88 2.82c.39.22.34.62-.11.88l-4.83 2.79a1.69 1.69 0 0 1-1.53.06ZM230.62 213.49l-4.88-2.82c-.39-.22-.34-.62.11-.88l4.83-2.79a1.69 1.69 0 0 1 1.53-.06l4.88 2.81c.39.23.34.62-.11.89l-4.83 2.79a1.73 1.73 0 0 1-1.53.06ZM238.15 217.84l-4.88-2.84c-.39-.23-.34-.62.11-.88l4.83-2.79a1.69 1.69 0 0 1 1.53-.06l4.88 2.81c.39.23.34.62-.11.88l-4.83 2.79a1.73 1.73 0 0 1-1.53.09ZM245.68 222.18l-4.88-2.81c-.39-.23-.34-.62.11-.88l4.83-2.79a1.73 1.73 0 0 1 1.53-.07l4.88 2.82c.39.23.34.62-.11.88l-4.83 2.79a1.69 1.69 0 0 1-1.53.06ZM253.21 226.53l-4.88-2.81c-.39-.23-.34-.62.11-.89l4.83-2.79a1.73 1.73 0 0 1 1.53-.06l4.88 2.82c.39.22.34.62-.11.88l-4.83 2.79a1.69 1.69 0 0 1-1.53.06ZM260.74 230.88l-4.88-2.82c-.39-.22-.34-.62.11-.88l4.83-2.79a1.69 1.69 0 0 1 1.53-.06l4.88 2.81c.39.23.34.63-.11.89l-4.83 2.79a1.73 1.73 0 0 1-1.53.06ZM274.13 238.61l-10.64-6.14c-.39-.23-.35-.63.11-.89l4.83-2.79a1.69 1.69 0 0 1 1.53-.06l10.64 6.14c.39.23.34.62-.11.89l-4.84 2.78a1.67 1.67 0 0 1-1.52.07ZM288.79 230.14l-9-5.18c-.39-.23-.35-.62.11-.88l4.83-2.79a1.73 1.73 0 0 1 1.53-.07l9 5.19c.39.23.34.62-.11.88l-4.84 2.79a1.67 1.67 0 0 1-1.52.06ZM213.68 195.25l-4.87-2.82c-.39-.22-.34-.62.11-.88l4.83-2.79a1.69 1.69 0 0 1 1.53-.06l4.87 2.81c.39.23.35.62-.11.88l-4.83 2.79a1.69 1.69 0 0 1-1.53.07ZM206 190.79l-4.91-2.79c-.39-.23-.34-.62.11-.89l4.83-2.78a1.7 1.7 0 0 1 1.53-.07l4.88 2.82c.39.22.34.62-.11.88l-4.84 2.79a1.67 1.67 0 0 1-1.49.04ZM198.25 186.34l-4.88-2.82c-.39-.23-.34-.62.11-.88l4.83-2.79a1.69 1.69 0 0 1 1.53-.06l4.88 2.81c.39.23.34.62-.11.88l-4.83 2.79a1.73 1.73 0 0 1-1.53.07ZM190.53 181.88l-4.87-2.81c-.4-.23-.35-.63.11-.89l4.83-2.79a1.67 1.67 0 0 1 1.52-.06l4.88 2.82c.39.22.34.62-.11.88l-4.83 2.79a1.69 1.69 0 0 1-1.53.06ZM221.21 199.6l-4.87-2.82c-.39-.23-.34-.62.11-.88l4.83-2.79a1.69 1.69 0 0 1 1.53-.06l4.87 2.81c.39.23.35.62-.11.88l-4.83 2.79a1.73 1.73 0 0 1-1.53.07ZM228.74 203.94l-4.87-2.81c-.39-.23-.34-.62.11-.88l4.83-2.79a1.73 1.73 0 0 1 1.53-.07l4.87 2.82c.39.22.35.62-.11.88l-4.83 2.79a1.69 1.69 0 0 1-1.53.06ZM236.28 208.29l-4.88-2.81c-.39-.23-.34-.63.11-.89l4.83-2.79a1.69 1.69 0 0 1 1.53-.06l4.87 2.82c.4.22.35.62-.11.88l-4.83 2.79a1.67 1.67 0 0 1-1.52.06ZM243.81 212.64l-4.88-2.82c-.39-.22-.34-.62.11-.88l4.83-2.79a1.69 1.69 0 0 1 1.53-.06l4.87 2.81c.4.23.35.62-.11.89l-4.83 2.78a1.67 1.67 0 0 1-1.52.07ZM251.34 217l-4.88-2.82c-.39-.23-.34-.62.11-.88l4.83-2.79a1.69 1.69 0 0 1 1.53-.06l4.87 2.81c.4.23.35.62-.11.88l-4.83 2.79a1.71 1.71 0 0 1-1.52.07ZM258.87 221.33l-4.87-2.81c-.39-.23-.34-.62.11-.88l4.83-2.79a1.73 1.73 0 0 1 1.53-.07l4.87 2.82c.4.22.35.62-.11.88l-4.83 2.79a1.67 1.67 0 0 1-1.53.06ZM266.4 225.68l-4.88-2.81c-.39-.23-.34-.63.11-.89l4.83-2.79a1.69 1.69 0 0 1 1.53-.06l4.87 2.82c.4.22.35.62-.1.88l-4.84 2.79a1.67 1.67 0 0 1-1.52.06ZM273.93 230l-4.88-2.82c-.39-.22-.34-.62.11-.88l4.83-2.79a1.69 1.69 0 0 1 1.53-.06l4.88 2.81c.39.23.34.62-.11.89l-4.84 2.85a1.7 1.7 0 0 1-1.52 0ZM281.46 234.38l-4.88-2.82c-.39-.23-.34-.62.11-.88l4.83-2.79a1.69 1.69 0 0 1 1.53-.06l4.88 2.81c.39.23.34.62-.11.88l-4.82 2.79a1.71 1.71 0 0 1-1.54.07ZM209.72 184.49l-4.88-2.81c-.39-.23-.34-.62.11-.88l4.83-2.79a1.73 1.73 0 0 1 1.53-.07l4.88 2.82c.39.23.34.62-.11.88l-4.83 2.79a1.69 1.69 0 0 1-1.53.06ZM202.23 180.17l-4.88-2.82c-.39-.22-.34-.62.11-.88l4.83-2.79a1.69 1.69 0 0 1 1.53-.06l4.87 2.81c.4.23.35.62-.1.89l-4.84 2.78a1.67 1.67 0 0 1-1.52.07ZM194.73 175.84l-4.87-2.84c-.39-.23-.35-.62.11-.89l4.83-2.78a1.69 1.69 0 0 1 1.53-.07l4.87 2.82c.39.22.34.62-.11.88l-4.83 2.79a1.69 1.69 0 0 1-1.53.09ZM187.24 171.52l-4.88-2.82c-.39-.23-.34-.62.11-.88l4.84-2.79a1.67 1.67 0 0 1 1.52-.06l4.88 2.81c.39.23.34.62-.11.88l-4.83 2.79a1.73 1.73 0 0 1-1.53.07ZM195 167.07l-4.88-2.82c-.39-.22-.34-.62.11-.88l1.6-.92a1.67 1.67 0 0 1 1.52-.06l4.88 2.81c.39.23.34.62-.11.88l-1.6.92a1.67 1.67 0 0 1-1.52.07ZM204.72 172.71l-4.87-2.81c-.39-.23-.34-.62.11-.88l1.59-.93a1.69 1.69 0 0 1 1.53-.06l4.88 2.82c.39.22.34.62-.11.88l-1.6.92a1.69 1.69 0 0 1-1.53.06ZM212.19 177l-4.88-2.81c-.39-.23-.34-.63.11-.89l1.6-.92a1.67 1.67 0 0 1 1.52-.06l4.88 2.81c.39.23.34.62-.11.89l-1.6.92a1.67 1.67 0 0 1-1.52.06ZM219.65 181.33l-4.88-2.82c-.39-.22-.34-.62.11-.88l1.6-.92a1.67 1.67 0 0 1 1.52-.06l4.88 2.81c.39.23.34.62-.11.88l-1.6.93a1.67 1.67 0 0 1-1.52.06ZM227.11 185.64l-4.88-2.82c-.39-.22-.34-.62.11-.88l1.6-.92a1.73 1.73 0 0 1 1.53-.07l4.87 2.82c.39.23.35.62-.11.88l-1.59.92a1.73 1.73 0 0 1-1.53.07ZM268.77 209.69l-4.88-2.82c-.39-.22-.34-.62.11-.88l1.6-.92a1.71 1.71 0 0 1 1.52-.07l4.88 2.82c.39.23.34.62-.11.88l-1.6.92a1.67 1.67 0 0 1-1.52.07ZM276.23 214l-4.88-2.82c-.39-.23-.34-.62.11-.88l1.6-.92a1.73 1.73 0 0 1 1.53-.07l4.87 2.82c.39.22.34.62-.11.88l-1.6.92a1.71 1.71 0 0 1-1.52.07ZM283.69 218.3l-4.88-2.81c-.39-.23-.34-.62.11-.88l1.6-.93a1.69 1.69 0 0 1 1.53-.06l4.87 2.82c.39.22.35.62-.11.88l-1.59.92a1.69 1.69 0 0 1-1.53.06ZM291.15 222.61l-4.88-2.81c-.39-.23-.34-.62.11-.89L288 218a1.69 1.69 0 0 1 1.53-.06l4.87 2.81c.4.23.35.62-.11.89l-1.59.92a1.69 1.69 0 0 1-1.55.05ZM217.25 188.84l-4.88-2.84c-.39-.23-.34-.62.11-.89l4.83-2.78a1.7 1.7 0 0 1 1.53-.07l4.88 2.82c.39.22.34.62-.11.88l-4.83 2.79a1.69 1.69 0 0 1-1.53.09ZM224.78 193.19l-4.88-2.82c-.39-.22-.34-.62.11-.88l4.83-2.79a1.69 1.69 0 0 1 1.53-.06l4.88 2.81c.39.23.34.63-.11.89l-4.83 2.79a1.69 1.69 0 0 1-1.53.06ZM232.31 197.54l-4.88-2.82c-.39-.22-.34-.62.11-.88l4.83-2.79a1.69 1.69 0 0 1 1.53-.06l4.88 2.81c.39.23.34.62-.11.88l-4.83 2.79a1.73 1.73 0 0 1-1.53.07ZM239.84 201.88l-4.84-2.81c-.39-.23-.34-.62.11-.88l4.84-2.79a1.71 1.71 0 0 1 1.52-.07l4.88 2.82c.39.23.34.62-.11.88l-4.83 2.79a1.69 1.69 0 0 1-1.57.06ZM247.37 206.23l-4.88-2.81c-.39-.23-.34-.62.11-.89l4.84-2.78a1.67 1.67 0 0 1 1.52-.07l4.88 2.82c.39.22.34.62-.11.88l-4.83 2.79a1.69 1.69 0 0 1-1.53.06ZM254.9 210.58l-4.9-2.82c-.39-.22-.34-.62.11-.88l4.84-2.79a1.67 1.67 0 0 1 1.52-.06l4.88 2.81c.39.23.34.63-.11.89l-4.83 2.79a1.69 1.69 0 0 1-1.51.06ZM262.43 214.93l-4.88-2.82c-.39-.22-.34-.62.11-.88l4.84-2.79a1.67 1.67 0 0 1 1.52-.06l4.88 2.81c.39.23.34.62-.11.88l-4.79 2.79a1.73 1.73 0 0 1-1.57.07ZM270 219.27l-4.87-2.81c-.4-.23-.35-.62.1-.88l4.84-2.79a1.71 1.71 0 0 1 1.52-.07l4.88 2.82c.39.23.34.62-.11.88l-4.83 2.79a1.69 1.69 0 0 1-1.53.06ZM277.49 223.62l-4.87-2.81c-.4-.23-.35-.62.11-.88l4.83-2.79a1.67 1.67 0 0 1 1.52-.07l4.88 2.82c.39.22.34.62-.11.88l-4.85 2.79a1.69 1.69 0 0 1-1.51.06ZM174.2 189.38l-14.36-8.29c-.39-.23-.35-.62.11-.88l4.83-2.79a1.69 1.69 0 0 1 1.53-.07l14.36 8.29c.39.23.34.62-.11.89l-4.83 2.79a1.73 1.73 0 0 1-1.53.06ZM266.71 242.79l-14.36-8.29c-.39-.23-.34-.62.11-.88l4.83-2.79a1.73 1.73 0 0 1 1.53-.07l14.36 8.3c.39.22.34.62-.11.88l-4.83 2.79a1.69 1.69 0 0 1-1.53.06ZM236.59 235l-4.87-2.82c-.39-.22-.34-.62.11-.88l5.75-3.32a1.73 1.73 0 0 1 1.53-.07l4.88 2.82c.39.22.34.62-.11.88l-5.76 3.32a1.73 1.73 0 0 1-1.53.07ZM181.91 203.43l-7.8-4.5c-.39-.22-.34-.62.11-.88l5.76-3.32a1.71 1.71 0 0 1 1.52-.07l7.8 4.51c.39.22.34.62-.11.88l-5.75 3.32a1.69 1.69 0 0 1-1.53.06ZM229.34 230.82l-7.8-4.5c-.39-.23-.34-.63.11-.89l5.76-3.32a1.67 1.67 0 0 1 1.52-.06l7.8 4.5c.39.23.34.62-.11.88l-5.75 3.32a1.7 1.7 0 0 1-1.53.07ZM192.77 209.71 185 205.2c-.4-.22-.35-.62.11-.88l5.75-3.32a1.69 1.69 0 0 1 1.53-.06l7.8 4.5c.39.22.34.62-.11.88l-5.76 3.32a1.73 1.73 0 0 1-1.55.07Z" class="cls-11"/><path d="m192.42 201 33.91 19.57a.46.46 0 0 1 0 .88l-5.87 3.39a1.72 1.72 0 0 1-1.53 0L185 205.23ZM257.64 242.89l5.43 3.14c.32.18.28.5-.09.72l-2.35 1.36a1.42 1.42 0 0 1-1.25 0l-5.44-3.11c-.32-.18-.28-.51.09-.72l2.36-1.36a1.38 1.38 0 0 1 1.25-.03ZM250.05 238.51l5.43 3.13c.32.19.28.51-.09.72l-2.39 1.36a1.39 1.39 0 0 1-1.25.06l-5.43-3.14c-.32-.19-.28-.51.09-.72l2.36-1.36a1.35 1.35 0 0 1 1.28-.05ZM242.52 234.16l5.43 3.13c.32.19.28.51-.09.73l-2.36 1.36a1.42 1.42 0 0 1-1.25.05l-5.43-3.14c-.32-.18-.28-.51.09-.72l2.36-1.36a1.38 1.38 0 0 1 1.25-.05ZM254.21 236.1l5.43 3.14c.32.19.28.51-.09.72l-2.36 1.36a1.35 1.35 0 0 1-1.25.05l-5.43-3.13c-.32-.19-.28-.51.09-.72l2.35-1.36a1.41 1.41 0 0 1 1.26-.06Z" class="cls-11"/></g><g class="cls-10"><path d="m156.4 188.7-4.88-2.81c-.39-.23-.34-.62.11-.88l5.76-3.33a1.67 1.67 0 0 1 1.52-.06l4.88 2.82c.39.22.34.62-.11.88l-5.76 3.32a1.67 1.67 0 0 1-1.52.06ZM163.93 193.05l-4.88-2.81c-.39-.23-.34-.62.11-.89l5.76-3.32a1.67 1.67 0 0 1 1.52-.06l4.88 2.81c.39.23.34.62-.11.89l-5.76 3.33a1.67 1.67 0 0 1-1.52.05ZM171.46 197.4l-4.88-2.82c-.39-.22-.34-.62.11-.88l5.76-3.32a1.67 1.67 0 0 1 1.52-.06l4.88 2.81c.39.23.34.62-.11.88l-5.74 3.33a1.67 1.67 0 0 1-1.54.06ZM181.87 193.81 177 191c-.4-.22-.35-.62.11-.88l4.83-2.79a1.67 1.67 0 0 1 1.52-.06l4.88 2.81c.39.23.34.63-.11.89l-4.83 2.79a1.72 1.72 0 0 1-1.53.05ZM189.4 198.16l-4.87-2.82c-.4-.22-.35-.62.11-.88l4.83-2.79a1.67 1.67 0 0 1 1.52-.06l4.88 2.81c.39.23.34.62-.11.88l-4.83 2.79a1.73 1.73 0 0 1-1.53.07ZM196.93 202.5l-4.87-2.81c-.4-.23-.35-.62.11-.88L197 196a1.71 1.71 0 0 1 1.52-.07l4.88 2.82c.39.23.34.62-.11.88l-4.83 2.79a1.69 1.69 0 0 1-1.53.08ZM204.46 206.85l-4.87-2.85c-.4-.23-.35-.62.11-.89l4.83-2.78a1.67 1.67 0 0 1 1.52-.07l4.88 2.82c.39.22.34.62-.11.88l-4.82 2.83a1.69 1.69 0 0 1-1.54.06ZM212 211.2l-4.87-2.82c-.4-.22-.35-.62.11-.88l4.83-2.79a1.69 1.69 0 0 1 1.53-.06l4.87 2.81c.39.23.34.63-.11.89l-4.83 2.79a1.69 1.69 0 0 1-1.53.06ZM219.52 215.55l-4.87-2.82c-.39-.22-.35-.62.11-.88l4.83-2.79a1.69 1.69 0 0 1 1.53-.06l4.87 2.81c.39.23.34.62-.11.88l-4.83 2.79a1.73 1.73 0 0 1-1.53.07ZM227.05 219.89l-4.87-2.81c-.39-.23-.35-.62.11-.88l4.83-2.79a1.73 1.73 0 0 1 1.53-.07l4.87 2.82c.39.23.34.62-.11.88l-4.83 2.79a1.69 1.69 0 0 1-1.53.06ZM234.58 224.24l-4.87-2.81c-.39-.23-.35-.62.11-.89l4.83-2.78a1.69 1.69 0 0 1 1.53-.07l4.87 2.82c.39.22.34.62-.11.88l-4.83 2.79a1.69 1.69 0 0 1-1.53.06ZM242.11 228.59l-4.87-2.82c-.39-.22-.34-.62.11-.88l4.83-2.79a1.69 1.69 0 0 1 1.53-.06l4.87 2.81c.39.23.34.63-.11.89l-4.83 2.79a1.69 1.69 0 0 1-1.53.06ZM249.64 232.94l-4.87-2.82c-.39-.22-.34-.62.11-.88l4.83-2.79a1.69 1.69 0 0 1 1.53-.06l4.87 2.81c.39.23.34.62-.11.88l-4.83 2.79a1.69 1.69 0 0 1-1.53.07ZM193 191.75l-4.88-2.81c-.39-.23-.34-.63.11-.89l4.83-2.79a1.69 1.69 0 0 1 1.53-.06l4.88 2.82c.39.22.34.62-.11.88l-4.84 2.79a1.67 1.67 0 0 1-1.52.06ZM185.32 187.34l-4.87-2.82c-.39-.22-.34-.62.11-.88l4.83-2.79a1.69 1.69 0 0 1 1.53-.06l4.87 2.81c.39.23.35.62-.11.89l-4.83 2.78a1.69 1.69 0 0 1-1.53.07ZM177.67 182.92l-10.5-6.06c-.39-.23-.35-.63.11-.89l4.83-2.79a1.69 1.69 0 0 1 1.53-.06l10.5 6.06c.39.23.34.62-.11.89l-4.83 2.79a1.73 1.73 0 0 1-1.53.06ZM183 177.54l-8.52-4.92c-.39-.22-.35-.62.11-.88l4.83-2.79a1.69 1.69 0 0 1 1.53-.06l8.52 4.92c.39.22.34.62-.11.88l-4.83 2.79a1.69 1.69 0 0 1-1.53.06ZM200.5 196.1l-4.88-2.82c-.39-.22-.34-.62.11-.88l4.83-2.79a1.69 1.69 0 0 1 1.53-.06l4.88 2.81c.39.23.34.62-.11.89L202 196a1.67 1.67 0 0 1-1.5.1ZM208 200.45l-4.88-2.82c-.39-.23-.34-.62.11-.88l4.83-2.79a1.69 1.69 0 0 1 1.53-.06l4.88 2.81c.39.23.34.62-.11.88l-4.84 2.79a1.71 1.71 0 0 1-1.52.07ZM215.56 204.79l-4.88-2.79c-.39-.23-.34-.62.11-.88l4.83-2.79a1.73 1.73 0 0 1 1.53-.07l4.88 2.82c.39.22.34.62-.11.88l-4.83 2.79a1.69 1.69 0 0 1-1.53.04ZM223.09 209.14l-4.88-2.81c-.39-.23-.34-.63.11-.89l4.83-2.79a1.69 1.69 0 0 1 1.53-.06l4.88 2.82c.39.22.34.62-.11.88l-4.83 2.79a1.69 1.69 0 0 1-1.53.06ZM230.62 213.49l-4.88-2.82c-.39-.22-.34-.62.11-.88l4.83-2.79a1.69 1.69 0 0 1 1.53-.06l4.88 2.81c.39.23.34.62-.11.89l-4.83 2.79a1.73 1.73 0 0 1-1.53.06ZM238.15 217.84l-4.88-2.84c-.39-.23-.34-.62.11-.88l4.83-2.79a1.69 1.69 0 0 1 1.53-.06l4.88 2.81c.39.23.34.62-.11.88l-4.83 2.79a1.73 1.73 0 0 1-1.53.09ZM245.68 222.18l-4.88-2.81c-.39-.23-.34-.62.11-.88l4.83-2.79a1.73 1.73 0 0 1 1.53-.07l4.88 2.82c.39.23.34.62-.11.88l-4.83 2.79a1.69 1.69 0 0 1-1.53.06ZM253.21 226.53l-4.88-2.81c-.39-.23-.34-.62.11-.89l4.83-2.79a1.73 1.73 0 0 1 1.53-.06l4.88 2.82c.39.22.34.62-.11.88l-4.83 2.79a1.69 1.69 0 0 1-1.53.06ZM260.74 230.88l-4.88-2.82c-.39-.22-.34-.62.11-.88l4.83-2.79a1.69 1.69 0 0 1 1.53-.06l4.88 2.81c.39.23.34.63-.11.89l-4.83 2.79a1.73 1.73 0 0 1-1.53.06ZM274.13 238.61l-10.64-6.14c-.39-.23-.35-.63.11-.89l4.83-2.79a1.69 1.69 0 0 1 1.53-.06l10.64 6.14c.39.23.34.62-.11.89l-4.84 2.78a1.67 1.67 0 0 1-1.52.07ZM288.79 230.14l-9-5.18c-.39-.23-.35-.62.11-.88l4.83-2.79a1.73 1.73 0 0 1 1.53-.07l9 5.19c.39.23.34.62-.11.88l-4.84 2.79a1.67 1.67 0 0 1-1.52.06ZM213.68 195.25l-4.87-2.82c-.39-.22-.34-.62.11-.88l4.83-2.79a1.69 1.69 0 0 1 1.53-.06l4.87 2.81c.39.23.35.62-.11.88l-4.83 2.79a1.69 1.69 0 0 1-1.53.07ZM206 190.79l-4.91-2.79c-.39-.23-.34-.62.11-.89l4.83-2.78a1.7 1.7 0 0 1 1.53-.07l4.88 2.82c.39.22.34.62-.11.88l-4.84 2.79a1.67 1.67 0 0 1-1.49.04ZM198.25 186.34l-4.88-2.82c-.39-.23-.34-.62.11-.88l4.83-2.79a1.69 1.69 0 0 1 1.53-.06l4.88 2.81c.39.23.34.62-.11.88l-4.83 2.79a1.73 1.73 0 0 1-1.53.07ZM190.53 181.88l-4.87-2.81c-.4-.23-.35-.63.11-.89l4.83-2.79a1.67 1.67 0 0 1 1.52-.06l4.88 2.82c.39.22.34.62-.11.88l-4.83 2.79a1.69 1.69 0 0 1-1.53.06ZM221.21 199.6l-4.87-2.82c-.39-.23-.34-.62.11-.88l4.83-2.79a1.69 1.69 0 0 1 1.53-.06l4.87 2.81c.39.23.35.62-.11.88l-4.83 2.79a1.73 1.73 0 0 1-1.53.07ZM228.74 203.94l-4.87-2.81c-.39-.23-.34-.62.11-.88l4.83-2.79a1.73 1.73 0 0 1 1.53-.07l4.87 2.82c.39.22.35.62-.11.88l-4.83 2.79a1.69 1.69 0 0 1-1.53.06ZM236.28 208.29l-4.88-2.81c-.39-.23-.34-.63.11-.89l4.83-2.79a1.69 1.69 0 0 1 1.53-.06l4.87 2.82c.4.22.35.62-.11.88l-4.83 2.79a1.67 1.67 0 0 1-1.52.06ZM243.81 212.64l-4.88-2.82c-.39-.22-.34-.62.11-.88l4.83-2.79a1.69 1.69 0 0 1 1.53-.06l4.87 2.81c.4.23.35.62-.11.89l-4.83 2.78a1.67 1.67 0 0 1-1.52.07ZM251.34 217l-4.88-2.82c-.39-.23-.34-.62.11-.88l4.83-2.79a1.69 1.69 0 0 1 1.53-.06l4.87 2.81c.4.23.35.62-.11.88l-4.83 2.79a1.71 1.71 0 0 1-1.52.07ZM258.87 221.33l-4.87-2.81c-.39-.23-.34-.62.11-.88l4.83-2.79a1.73 1.73 0 0 1 1.53-.07l4.87 2.82c.4.22.35.62-.11.88l-4.83 2.79a1.67 1.67 0 0 1-1.53.06ZM266.4 225.68l-4.88-2.81c-.39-.23-.34-.63.11-.89l4.83-2.79a1.69 1.69 0 0 1 1.53-.06l4.87 2.82c.4.22.35.62-.1.88l-4.84 2.79a1.67 1.67 0 0 1-1.52.06ZM273.93 230l-4.88-2.82c-.39-.22-.34-.62.11-.88l4.83-2.79a1.69 1.69 0 0 1 1.53-.06l4.88 2.81c.39.23.34.62-.11.89l-4.84 2.85a1.7 1.7 0 0 1-1.52 0ZM281.46 234.38l-4.88-2.82c-.39-.23-.34-.62.11-.88l4.83-2.79a1.69 1.69 0 0 1 1.53-.06l4.88 2.81c.39.23.34.62-.11.88l-4.82 2.79a1.71 1.71 0 0 1-1.54.07ZM209.72 184.49l-4.88-2.81c-.39-.23-.34-.62.11-.88l4.83-2.79a1.73 1.73 0 0 1 1.53-.07l4.88 2.82c.39.23.34.62-.11.88l-4.83 2.79a1.69 1.69 0 0 1-1.53.06ZM202.23 180.17l-4.88-2.82c-.39-.22-.34-.62.11-.88l4.83-2.79a1.69 1.69 0 0 1 1.53-.06l4.87 2.81c.4.23.35.62-.1.89l-4.84 2.78a1.67 1.67 0 0 1-1.52.07ZM194.73 175.84l-4.87-2.84c-.39-.23-.35-.62.11-.89l4.83-2.78a1.69 1.69 0 0 1 1.53-.07l4.87 2.82c.39.22.34.62-.11.88l-4.83 2.79a1.69 1.69 0 0 1-1.53.09ZM187.24 171.52l-4.88-2.82c-.39-.23-.34-.62.11-.88l4.84-2.79a1.67 1.67 0 0 1 1.52-.06l4.88 2.81c.39.23.34.62-.11.88l-4.83 2.79a1.73 1.73 0 0 1-1.53.07ZM195 167.07l-4.88-2.82c-.39-.22-.34-.62.11-.88l1.6-.92a1.67 1.67 0 0 1 1.52-.06l4.88 2.81c.39.23.34.62-.11.88l-1.6.92a1.67 1.67 0 0 1-1.52.07ZM204.72 172.71l-4.87-2.81c-.39-.23-.34-.62.11-.88l1.59-.93a1.69 1.69 0 0 1 1.53-.06l4.88 2.82c.39.22.34.62-.11.88l-1.6.92a1.69 1.69 0 0 1-1.53.06ZM212.19 177l-4.88-2.81c-.39-.23-.34-.63.11-.89l1.6-.92a1.67 1.67 0 0 1 1.52-.06l4.88 2.81c.39.23.34.62-.11.89l-1.6.92a1.67 1.67 0 0 1-1.52.06ZM219.65 181.33l-4.88-2.82c-.39-.22-.34-.62.11-.88l1.6-.92a1.67 1.67 0 0 1 1.52-.06l4.88 2.81c.39.23.34.62-.11.88l-1.6.93a1.67 1.67 0 0 1-1.52.06ZM227.11 185.64l-4.88-2.82c-.39-.22-.34-.62.11-.88l1.6-.92a1.73 1.73 0 0 1 1.53-.07l4.87 2.82c.39.23.35.62-.11.88l-1.59.92a1.73 1.73 0 0 1-1.53.07ZM268.77 209.69l-4.88-2.82c-.39-.22-.34-.62.11-.88l1.6-.92a1.71 1.71 0 0 1 1.52-.07l4.88 2.82c.39.23.34.62-.11.88l-1.6.92a1.67 1.67 0 0 1-1.52.07ZM276.23 214l-4.88-2.82c-.39-.23-.34-.62.11-.88l1.6-.92a1.73 1.73 0 0 1 1.53-.07l4.87 2.82c.39.22.34.62-.11.88l-1.6.92a1.71 1.71 0 0 1-1.52.07ZM283.69 218.3l-4.88-2.81c-.39-.23-.34-.62.11-.88l1.6-.93a1.69 1.69 0 0 1 1.53-.06l4.87 2.82c.39.22.35.62-.11.88l-1.59.92a1.69 1.69 0 0 1-1.53.06ZM291.15 222.61l-4.88-2.81c-.39-.23-.34-.62.11-.89L288 218a1.69 1.69 0 0 1 1.53-.06l4.87 2.81c.4.23.35.62-.11.89l-1.59.92a1.69 1.69 0 0 1-1.55.05ZM217.25 188.84l-4.88-2.84c-.39-.23-.34-.62.11-.89l4.83-2.78a1.7 1.7 0 0 1 1.53-.07l4.88 2.82c.39.22.34.62-.11.88l-4.83 2.79a1.69 1.69 0 0 1-1.53.09ZM224.78 193.19l-4.88-2.82c-.39-.22-.34-.62.11-.88l4.83-2.79a1.69 1.69 0 0 1 1.53-.06l4.88 2.81c.39.23.34.63-.11.89l-4.83 2.79a1.69 1.69 0 0 1-1.53.06ZM232.31 197.54l-4.88-2.82c-.39-.22-.34-.62.11-.88l4.83-2.79a1.69 1.69 0 0 1 1.53-.06l4.88 2.81c.39.23.34.62-.11.88l-4.83 2.79a1.73 1.73 0 0 1-1.53.07ZM239.84 201.88l-4.84-2.81c-.39-.23-.34-.62.11-.88l4.84-2.79a1.71 1.71 0 0 1 1.52-.07l4.88 2.82c.39.23.34.62-.11.88l-4.83 2.79a1.69 1.69 0 0 1-1.57.06ZM247.37 206.23l-4.88-2.81c-.39-.23-.34-.62.11-.89l4.84-2.78a1.67 1.67 0 0 1 1.52-.07l4.88 2.82c.39.22.34.62-.11.88l-4.83 2.79a1.69 1.69 0 0 1-1.53.06ZM254.9 210.58l-4.9-2.82c-.39-.22-.34-.62.11-.88l4.84-2.79a1.67 1.67 0 0 1 1.52-.06l4.88 2.81c.39.23.34.63-.11.89l-4.83 2.79a1.69 1.69 0 0 1-1.51.06ZM262.43 214.93l-4.88-2.82c-.39-.22-.34-.62.11-.88l4.84-2.79a1.67 1.67 0 0 1 1.52-.06l4.88 2.81c.39.23.34.62-.11.88l-4.79 2.79a1.73 1.73 0 0 1-1.57.07ZM270 219.27l-4.87-2.81c-.4-.23-.35-.62.1-.88l4.84-2.79a1.71 1.71 0 0 1 1.52-.07l4.88 2.82c.39.23.34.62-.11.88l-4.83 2.79a1.69 1.69 0 0 1-1.53.06ZM277.49 223.62l-4.87-2.81c-.4-.23-.35-.62.11-.88l4.83-2.79a1.67 1.67 0 0 1 1.52-.07l4.88 2.82c.39.22.34.62-.11.88l-4.85 2.79a1.69 1.69 0 0 1-1.51.06ZM174.2 189.38l-14.36-8.29c-.39-.23-.35-.62.11-.88l4.83-2.79a1.69 1.69 0 0 1 1.53-.07l14.36 8.29c.39.23.34.62-.11.89l-4.83 2.79a1.73 1.73 0 0 1-1.53.06ZM266.71 242.79l-14.36-8.29c-.39-.23-.34-.62.11-.88l4.83-2.79a1.73 1.73 0 0 1 1.53-.07l14.36 8.3c.39.22.34.62-.11.88l-4.83 2.79a1.69 1.69 0 0 1-1.53.06ZM236.59 235l-4.87-2.82c-.39-.22-.34-.62.11-.88l5.75-3.32a1.73 1.73 0 0 1 1.53-.07l4.88 2.82c.39.22.34.62-.11.88l-5.76 3.32a1.73 1.73 0 0 1-1.53.07ZM181.91 203.43l-7.8-4.5c-.39-.22-.34-.62.11-.88l5.76-3.32a1.71 1.71 0 0 1 1.52-.07l7.8 4.51c.39.22.34.62-.11.88l-5.75 3.32a1.69 1.69 0 0 1-1.53.06ZM229.34 230.82l-7.8-4.5c-.39-.23-.34-.63.11-.89l5.76-3.32a1.67 1.67 0 0 1 1.52-.06l7.8 4.5c.39.23.34.62-.11.88l-5.75 3.32a1.7 1.7 0 0 1-1.53.07ZM192.77 209.71 185 205.2c-.4-.22-.35-.62.11-.88l5.75-3.32a1.69 1.69 0 0 1 1.53-.06l7.8 4.5c.39.22.34.62-.11.88l-5.76 3.32a1.73 1.73 0 0 1-1.55.07Z" class="cls-11"/><path d="m192.42 201 33.91 19.57a.46.46 0 0 1 0 .88l-5.87 3.39a1.72 1.72 0 0 1-1.53 0L185 205.23ZM257.64 242.89l5.43 3.14c.32.18.28.5-.09.72l-2.35 1.36a1.42 1.42 0 0 1-1.25 0l-5.44-3.11c-.32-.18-.28-.51.09-.72l2.36-1.36a1.38 1.38 0 0 1 1.25-.03ZM250.05 238.51l5.43 3.13c.32.19.28.51-.09.72l-2.39 1.36a1.39 1.39 0 0 1-1.25.06l-5.43-3.14c-.32-.19-.28-.51.09-.72l2.36-1.36a1.35 1.35 0 0 1 1.28-.05ZM242.52 234.16l5.43 3.13c.32.19.28.51-.09.73l-2.36 1.36a1.42 1.42 0 0 1-1.25.05l-5.43-3.14c-.32-.18-.28-.51.09-.72l2.36-1.36a1.38 1.38 0 0 1 1.25-.05ZM254.21 236.1l5.43 3.14c.32.19.28.51-.09.72l-2.36 1.36a1.35 1.35 0 0 1-1.25.05l-5.43-3.13c-.32-.19-.28-.51.09-.72l2.35-1.36a1.41 1.41 0 0 1 1.26-.06Z" class="cls-11"/></g><path d="M333.9 227.31 190 144.25a6.39 6.39 0 0 1-2.64-7.11l32.58-105.63c.8-2.62 3.29-3.68 5.55-2.38l143.86 83.06a6.36 6.36 0 0 1 2.65 7.11l-32.54 105.63c-.81 2.62-3.3 3.69-5.56 2.38Z" style="fill:url(#Áåçûìÿííûé_ãðàäèåíò_343-2)"/><path d="M332.54 223.61 193 143a6.09 6.09 0 0 1-2.53-6.8l31.11-101c.77-2.51 3.15-3.53 5.31-2.28l139.54 80.63a6.07 6.07 0 0 1 2.52 6.8l-31.1 101c-.76 2.49-3.14 3.51-5.31 2.26Z" style="fill:url(#Áåçûìÿííûé_ãðàäèåíò_441)"/><path d="M332.54 223.61 193 143a6.09 6.09 0 0 1-2.53-6.8l31.11-101c.77-2.51 3.15-3.53 5.31-2.28l139.54 80.63a6.07 6.07 0 0 1 2.52 6.8l-31.1 101c-.76 2.49-3.14 3.51-5.31 2.26Z" class="cls-14"/><path d="M332.54 223.61 193 143a6.09 6.09 0 0 1-2.53-6.8l31.11-101c.77-2.51 3.15-3.53 5.31-2.28l139.54 80.63a6.07 6.07 0 0 1 2.52 6.8l-31.1 101c-.76 2.49-3.14 3.51-5.31 2.26Z" class="cls-14"/><path d="m325.05 192.75-94.46-54.54a4.16 4.16 0 0 1-1.73-4.66l21.36-69.36a2.42 2.42 0 0 1 3.65-1.56l94.46 54.53a4.19 4.19 0 0 1 1.73 4.67l-21.36 69.36a2.43 2.43 0 0 1-3.65 1.56Z" style="opacity:.5;fill:#06033e"/><path d="m312.29 194.42-94.46-54.53a4.19 4.19 0 0 1-1.74-4.67l21.37-69.36a2.42 2.42 0 0 1 3.64-1.56l94.46 54.54a4.17 4.17 0 0 1 1.73 4.66l-21.36 69.36a2.42 2.42 0 0 1-3.64 1.56Z" style="fill:url(#Áåçûìÿííûé_ãðàäèåíò_343-3)"/><path d="m312.29 194.42-94.46-54.53a4.19 4.19 0 0 1-1.74-4.67l21.37-69.36a2.42 2.42 0 0 1 3.64-1.56l94.46 54.54a4.17 4.17 0 0 1 1.73 4.66l-21.36 69.36a2.42 2.42 0 0 1-3.64 1.56Z" class="cls-11" style="opacity:.5"/><path d="M335.56 118.84 241.1 64.3a2.34 2.34 0 0 0-2.65.09 2.58 2.58 0 0 1 1.36.35l94.46 54.54a4.18 4.18 0 0 1 1.73 4.66l-21.36 69.36a2.88 2.88 0 0 1-1 1.47 2.48 2.48 0 0 0 2.28-1.91l21.36-69.36a4.17 4.17 0 0 0-1.72-4.66Z" class="cls-9"/><path d="M193.15 251.06a7.1 7.1 0 0 1-3.5-.82l-37.85-21.85a2.72 2.72 0 0 1-1.55-2.33 3.57 3.57 0 0 1 2.09-2.89l19.48-11.25a8.72 8.72 0 0 1 8-.31l37.85 21.85a2.74 2.74 0 0 1 1.55 2.33 3.59 3.59 0 0 1-2.08 2.9l-19.48 11.25a9.23 9.23 0 0 1-4.51 1.12Zm-16.86-39.16a8.11 8.11 0 0 0-3.93 1l-19.48 11.24c-1 .57-1.54 1.28-1.54 1.95a1.75 1.75 0 0 0 1 1.39l37.86 21.82c1.71 1 4.85.85 6.86-.31l19.48-11.25c1-.56 1.54-1.27 1.54-2a1.73 1.73 0 0 0-1-1.38l-37.84-21.85a6.08 6.08 0 0 0-2.95-.61Z" class="cls-14"/><path d="m264.11 100.69-5.84-3.37a1.54 1.54 0 0 1-.65-1.68.86.86 0 0 1 1.31-.55l5.84 3.37a1.51 1.51 0 0 1 .65 1.68.86.86 0 0 1-1.31.55ZM278 108.72l-8.61-5a1.53 1.53 0 0 1-.65-1.68.86.86 0 0 1 1.31-.55l8.62 5a1.52 1.52 0 0 1 .64 1.68.86.86 0 0 1-1.31.55ZM252.33 126.69l-5.84-3.37a1.54 1.54 0 0 1-.65-1.68.87.87 0 0 1 1.32-.55l5.84 3.37a1.54 1.54 0 0 1 .65 1.68.87.87 0 0 1-1.32.55ZM264.73 133.85l-8.61-5a1.54 1.54 0 0 1-.65-1.68.87.87 0 0 1 1.32-.55l8.61 5a1.53 1.53 0 0 1 .65 1.68.87.87 0 0 1-1.32.55ZM246.62 96.06 243 94a1.53 1.53 0 0 1-.65-1.68.87.87 0 0 1 1.31-.55l3.65 2.11a1.53 1.53 0 0 1 .65 1.68.87.87 0 0 1-1.34.5ZM257.59 107.86l-11.14-6.44a1.53 1.53 0 0 1-.65-1.68.86.86 0 0 1 1.31-.54l11.15 6.43a1.54 1.54 0 0 1 .65 1.68.87.87 0 0 1-1.32.55ZM247.31 112.86l-3.64-2.11a1.5 1.5 0 0 1-.65-1.68.86.86 0 0 1 1.31-.54l3.65 2.1a1.53 1.53 0 0 1 .65 1.68.87.87 0 0 1-1.32.55ZM266.08 145.56l-9.75-5.63a1.53 1.53 0 0 1-.65-1.68.87.87 0 0 1 1.32-.54l9.74 5.62a1.53 1.53 0 0 1 .65 1.68.87.87 0 0 1-1.31.55ZM243.22 121.43l-2.34-1.35a1.54 1.54 0 0 1-.65-1.68.87.87 0 0 1 1.32-.55l2.34 1.35a1.54 1.54 0 0 1 .65 1.68.87.87 0 0 1-1.32.55ZM241 131.08l-2.91-1.68a1.52 1.52 0 0 1-.65-1.67.86.86 0 0 1 1.31-.54l2.91 1.68a1.51 1.51 0 0 1 .65 1.68.86.86 0 0 1-1.31.53ZM252.32 137.61l-7.67-4.42a1.51 1.51 0 0 1-.64-1.68.86.86 0 0 1 1.31-.55l7.67 4.43a1.51 1.51 0 0 1 .64 1.68.86.86 0 0 1-1.31.54ZM242.22 137.25l-5.51-3.18a1.54 1.54 0 0 1-.65-1.68.86.86 0 0 1 1.31-.55l5.52 3.18a1.54 1.54 0 0 1 .65 1.68.87.87 0 0 1-1.32.55ZM274.44 150.41l-3.54-2a1.51 1.51 0 0 1-.65-1.68.86.86 0 0 1 1.31-.54l3.54 2a1.53 1.53 0 0 1 .65 1.68.87.87 0 0 1-1.31.54ZM260.88 120.69l-9.74-5.62a1.54 1.54 0 0 1-.65-1.68.86.86 0 0 1 1.31-.55l9.75 5.63a1.53 1.53 0 0 1 .65 1.68.87.87 0 0 1-1.32.54Z" class="cls-9"/><path d="m262 115.89-17-9.8a1.51 1.51 0 0 1-.65-1.68.86.86 0 0 1 1.31-.55l17 9.81a1.51 1.51 0 0 1 .65 1.68.86.86 0 0 1-1.31.54ZM252 121l-9.75-5.63a1.51 1.51 0 0 1-.64-1.68.86.86 0 0 1 1.31-.54l9.74 5.62a1.54 1.54 0 0 1 .65 1.68.86.86 0 0 1-1.31.55ZM268.27 125l-3.54-2a1.52 1.52 0 0 1-.65-1.67.87.87 0 0 1 1.32-.55l3.54 2a1.54 1.54 0 0 1 .65 1.68.87.87 0 0 1-1.32.54ZM304.29 123.88l-21-12.1a1.53 1.53 0 0 1-.65-1.68.87.87 0 0 1 1.31-.55l21 12.11a1.53 1.53 0 0 1 .65 1.68.86.86 0 0 1-1.31.54Z" class="cls-18"/><path d="m251.2 131.5-11.71-6.76a1.53 1.53 0 0 1-.65-1.68.87.87 0 0 1 1.32-.54l11.71 6.76a1.53 1.53 0 0 1 .65 1.68.87.87 0 0 1-1.32.54ZM253 94.26l-8.61-5a1.54 1.54 0 0 1-.65-1.68.86.86 0 0 1 1.31-.55l8.61 5a1.5 1.5 0 0 1 .65 1.68.86.86 0 0 1-1.31.55Z" class="cls-19"/><path d="m240.42 141.68-10-5.76a1.53 1.53 0 0 1-.65-1.68.87.87 0 0 1 1.31-.55l10 5.76a1.51 1.51 0 0 1 .64 1.68.86.86 0 0 1-1.3.55Z" class="cls-18"/><path d="m306.64 113.1-4.27-2.46a1.1 1.1 0 0 1-.47-1.23.63.63 0 0 1 1-.4l4.26 2.46a1.12 1.12 0 0 1 .48 1.23.63.63 0 0 1-1 .4ZM314.78 117.8l-4.27-2.46a1.12 1.12 0 0 1-.47-1.23.63.63 0 0 1 1-.4l4.27 2.47a1.11 1.11 0 0 1 .47 1.22.63.63 0 0 1-1 .4ZM322.92 122.5l-4.27-2.5a1.13 1.13 0 0 1-.47-1.23.63.63 0 0 1 1-.4l4.27 2.47a1.1 1.1 0 0 1 .47 1.22.63.63 0 0 1-1 .44Z" class="cls-9"/><path d="m326.93 124.82-.13-.08a1.12 1.12 0 0 1-.48-1.23.63.63 0 0 1 1-.4l.13.08a1.1 1.1 0 0 1 .47 1.23.62.62 0 0 1-.99.4Z" class="cls-19"/><path d="M106.61 174.77a15.53 15.53 0 0 1-7.81-2.09l-28.59-16.51a3.94 3.94 0 0 1 0-6.85l28.59-16.51a15.67 15.67 0 0 1 15.62 0L143 149.32a4 4 0 0 1 0 6.86l-28.59 16.5a15.57 15.57 0 0 1-7.8 2.09Zm-6.88-3.7a13.82 13.82 0 0 0 13.77 0l28.59-16.51a2.09 2.09 0 0 0 0-3.63l-28.59-16.51a13.82 13.82 0 0 0-13.77 0l-28.6 16.51a2.1 2.1 0 0 0 0 3.63Z" style="fill:url(#Áåçûìÿííûé_ãðàäèåíò_33-5)"/><path d="M120.36 161.15c-7.67 4.43-20.11 4.43-27.78 0s-7.67-11.6 0-16 20.11-4.43 27.78 0 7.64 11.58 0 16Z" class="cls-4"/><path d="M135.58 72.32H79.64l5.2 60.57c0 3.36 2.23 6.72 6.67 9.29 8.89 5.13 23.31 5.13 32.2 0 4.45-2.57 6.67-5.93 6.67-9.29Z" style="fill:url(#Áåçûìÿííûé_ãðàäèåíò_199)"/><path d="M135.58 72.32H79.64l.86 10A21.87 21.87 0 0 0 85.68 87C96.37 94 114 95.4 126 90.3l-1.86 44.3a8.69 8.69 0 0 1-2 5.28c-1.81 2.13-5.3 4.64-12 6.06a31.53 31.53 0 0 0 13.54-3.76c4.45-2.57 6.67-5.93 6.67-9.29l4.17-48.58Z" class="cls-14"/><ellipse cx="107.61" cy="72.32" class="cls-14" rx="27.97" ry="16.15"/><ellipse cx="107.61" cy="66.62" class="cls-14" rx="24.09" ry="13.91"/><path d="M137.24 71.56a.25.25 0 0 1 0-.08l-.55-5.48v.07c-.24-4.11-3.07-8.17-8.5-11.31-11.35-6.55-29.77-6.55-41.12 0-5.57 3.22-8.4 7.41-8.51 11.62L78 71.19v.46c-.31 4.6 2.58 9.26 8.66 12.77 11.58 6.69 30.36 6.69 41.94 0 6.11-3.54 8.99-8.24 8.64-12.86Z" style="fill:url(#Áåçûìÿííûé_ãðàäèåíò_144)"/><ellipse cx="107.61" cy="66.62" rx="24.09" ry="13.91" style="fill:url(#Áåçûìÿííûé_ãðàäèåíò_483)"/><ellipse cx="106.47" cy="66.62" rx="24.09" ry="13.91" style="fill:url(#Áåçûìÿííûé_ãðàäèåíò_483-2)"/><path d="M93.43 58.86c9.41-5.43 24.67-5.43 34.07 0l.34.22a19.64 19.64 0 0 0-3.19-2.29c-9.41-5.43-24.67-5.43-34.08 0s-9.38 14-.33 19.45c-6.05-5.39-4.99-12.66 3.19-17.38Z" class="cls-14"/><path d="M90.57 59.2c9.41-5.43 24.67-5.43 34.08 0 4.17 2.41 6.49 5.48 7 8.63.59-3.95-1.73-8-7-11-9.41-5.43-24.67-5.43-34.08 0-5.23 3-7.55 7.09-7 11 .52-3.15 2.83-6.22 7-8.63Z" style="fill:url(#Áåçûìÿííûé_ãðàäèåíò_193)"/><path d="M128.35 54.89c-11.34-6.68-29.82-6.84-41.27-.36s-11.55 17.15-.21 23.83 29.82 6.84 41.27.36 11.55-17.15.21-23.83Zm-3.7 21.57a31.53 31.53 0 0 1-11 3.61l-.44-1.44a1.36 1.36 0 0 0-1.31-1h-8.65a1.37 1.37 0 0 0-1.32 1l-.44 1.44a31.41 31.41 0 0 1-11-3.61c-9.41-5.43-9.41-14.24 0-19.67s24.67-5.43 34.08 0 9.49 14.21.08 19.67Z" style="fill:url(#Áåçûìÿííûé_ãðàäèåíò_223)"/><path d="M124.65 55.76c-9.41-5.43-24.67-5.43-34.08 0-4.93 2.85-7.27 6.62-7 10.35.22-3.39 2.56-6.74 7-9.32 9.41-5.43 24.67-5.43 34.08 0 4.47 2.58 6.82 5.93 7 9.32.27-3.73-2.07-7.5-7-10.35Z" class="cls-9"/><path d="M128.14 77.69c-11.45 6.48-29.93 6.32-41.27-.36-5.4-3.18-8.2-7.26-8.43-11.37-.22 4.45 2.58 9 8.43 12.4 11.34 6.68 29.82 6.84 41.27.36 6-3.4 8.89-7.94 8.64-12.46-.21 4.17-3.09 8.29-8.64 11.43Z" class="cls-9"/><rect width="6.48" height="1.4" x="104.37" y="79.42" rx=".65" style="fill:#0c0a78"/><path d="M110.2 79.42H105a.65.65 0 0 0-.66.65v.1a.53.53 0 0 0 0 .17.64.64 0 0 1 .62-.48h5.17a.63.63 0 0 1 .61.48.53.53 0 0 0 0-.17v-.1a.65.65 0 0 0-.54-.65Z" style="fill:url(#Áåçûìÿííûé_ãðàäèåíò_193-2)"/><path d="M108.4 126.66a4.47 4.47 0 0 1-8.64-2.29c.64-2.39 2.89-3.06 5.27-2.43s3.97 2.34 3.37 4.72ZM111.92 122a2 2 0 1 1-2.76-2.83c.89-.88 2.61-1.32 3.37-.54s.29 2.45-.61 3.37ZM107.25 118.22a2 2 0 1 1-3.9-.7c.22-1.24 1.36-2.58 2.44-2.39s1.68 1.87 1.46 3.09ZM101.49 117.64a2 2 0 1 1-3.66 1.51c-.48-1.16-.24-2.91.77-3.33s2.4.66 2.89 1.82Z" class="cls-18"/><path d="M109.44 80.12s15.64-5.24 9.31-23.21-18.66-23.45-13.7-37.83c0 0-7.78 11.64-.51 27.39s8.87 13.93 8.79 21.47A13.58 13.58 0 0 1 106 80.12ZM110.85 21.58S109.22 10.83 119.3 0c0 0-8.91 19.92-6 29.75 0 0-2.3-6.25-2.45-8.17Z" class="cls-29"/></svg>